<?xml version="1.0" encoding="utf-8"?>
<!-- Generator: Adobe Illustrator 24.2.0, SVG Export Plug-In . SVG Version: 6.00 Build 0)  -->
<svg version="1.1" id="fd59ce54-f850-4dfc-bc34-dd7d379d600e"
	 xmlns="http://www.w3.org/2000/svg" xmlns:xlink="http://www.w3.org/1999/xlink" x="0px" y="0px" viewBox="0 0 1074.4 420.3"
	 style="enable-background:new 0 0 1074.4 420.3;" xml:space="preserve">
<style type="text/css">
	.st0{fill:#F2F2F2;}
	.st1{opacity:5.000000e-02;enable-background:new;}
	.st2{fill:#2F2E41;}
	.st3{fill:#7b1fa2;}
	.st4{fill:none;stroke:#3F3D56;stroke-miterlimit:10;}
</style>
<ellipse class="st0" cx="540.6" cy="384.8" rx="527.5" ry="34.9"/>
<ellipse class="st1" cx="540.6" cy="384.8" rx="463.6" ry="17.8"/>
<path class="st2" d="M530,5.5c-85.9,0-147.6,55.1-147.6,183.8c0,145.8,61.7,184.4,147.6,184.4s151.3-42.3,151.3-184.4
	C681.3,37.4,615.9,5.5,530,5.5z M530.5,325.3c-59.5,0-90.6-34.9-90.6-135.9c0-89.1,32.4-136.1,91.9-136.1s91.9,30.9,91.9,136.1
	C623.7,287.9,590,325.3,530.5,325.3z"/>
<path class="st3" d="M321.3,269h-35.5V164.4c0-11.6-9.4-21-21-21h-8.3c-11.6,0-21,9.4-21,21l0,0V269H135.3c-6.6,0-12-5.4-11.9-12.1
	c0-1.9,0.5-3.8,1.4-5.5L230.8,50.7c5.4-10.2,1.5-22.9-8.7-28.3l-0.8-0.4L215,19c-10.1-4.7-22.1-0.8-27.4,9.1l-129.4,242
	c-2.2,4.1-3.4,8.7-3.4,13.4l0,0c0,15.7,12.7,28.4,28.4,28.4h152.3v66.2c0,13.9,11.2,25.1,25.1,25.1l0,0l0,0
	c13.9,0,25.1-11.2,25.1-25.1l0,0v-66.2h35.5c11.8,0,21.4-9.6,21.4-21.4l0,0l0,0C342.8,278.6,333.2,269,321.3,269
	C321.3,269,321.3,269,321.3,269z"/>
<path class="st3" d="M979.3,269h-35.5V164.4c0-11.6-9.4-21-21-21h-8.3c-11.6,0-21,9.4-21,21l0,0V269H793.3c-6.6,0-12-5.4-11.9-12.1
	c0-1.9,0.5-3.8,1.4-5.5L888.8,50.7c5.4-10.2,1.5-22.9-8.7-28.3l-0.8-0.4L873,19c-10.1-4.7-22.1-0.8-27.4,9.1l-129.4,242
	c-2.2,4.1-3.4,8.7-3.4,13.4l0,0c0,15.7,12.7,28.4,28.4,28.4h152.3v66.2c0,13.9,11.2,25.1,25.1,25.1l0,0c13.9,0,25.1-11.2,25.1-25.1
	l0,0v-66.2h35.5c11.8,0,21.4-9.6,21.4-21.4l0,0l0,0C1000.8,278.6,991.2,269,979.3,269C979.3,269,979.3,269,979.3,269z"/>
<path class="st4" d="M331.1,256.8h-35.5V152.1c0-11.6-9.4-21-21-21h-8.3c-11.6,0-21,9.4-21,21l0,0v104.6H145.1
	c-6.6,0-12-5.4-11.9-12.1c0-1.9,0.5-3.8,1.4-5.5L240.6,38.4c5.4-10.2,1.5-22.9-8.7-28.3L231,9.7l-6.3-3c-10.1-4.7-22.1-0.8-27.4,9.1
	L68,257.8c-2.2,4.1-3.4,8.7-3.4,13.4l0,0c0,15.7,12.7,28.4,28.4,28.4h152.3v66.2c0,13.9,11.2,25.1,25.1,25.1l0,0
	c13.9,0,25.1-11.2,25.1-25.1l0,0v-66.2h35.5c11.8,0,21.4-9.6,21.4-21.4l0,0l0,0C352.6,266.4,343,256.8,331.1,256.8
	C331.1,256.8,331.1,256.8,331.1,256.8z"/>
<path class="st4" d="M997.7,256.8h-35.5V152.1c0-11.6-9.4-21-21-21h-8.3c-11.6,0-21,9.4-21,21l0,0v104.6H811.7
	c-6.6,0-12-5.4-11.9-12.1c0-1.9,0.5-3.8,1.4-5.5L907.2,38.4c5.4-10.2,1.5-22.9-8.7-28.3l-0.8-0.4l-6.3-3
	c-10.1-4.7-22.1-0.8-27.4,9.1l-129.4,242c-2.2,4.1-3.4,8.7-3.4,13.4l0,0c0,15.7,12.7,28.4,28.4,28.4h152.3v66.2
	c0,13.9,11.2,25.2,25,25.2c0,0,0,0,0,0l0,0c13.9,0,25.1-11.2,25.1-25.1l0,0v-66.2h35.5c11.8,0,21.4-9.6,21.4-21.4l0,0l0,0
	C1019.1,266.4,1009.5,256.8,997.7,256.8L997.7,256.8L997.7,256.8z"/>
</svg>
