<?xml version="1.0" encoding="utf-8"?>
<!-- Generator: Adobe Illustrator 26.0.2, SVG Export Plug-In . SVG Version: 6.00 Build 0)  -->
<svg version="1.1" id="Layer_1" xmlns="http://www.w3.org/2000/svg" xmlns:xlink="http://www.w3.org/1999/xlink" x="0px" y="0px"
	 viewBox="0 0 330.6 238" style="enable-background:new 0 0 330.6 238;" xml:space="preserve">
<style type="text/css">
	.st0{enable-background:new    ;}
	.st1{fill:#7b1fa2;}
	.st2{fill:none;stroke:#000000;stroke-width:1.5;stroke-linecap:round;stroke-linejoin:round;}
</style>
<path d="M24.1,5.5h280.2c11,0,20,9,20,20v187.1c0,11-9,20-20,20H24.1c-11,0-20-9-20-20V25.5C4.1,14.4,13.1,5.5,24.1,5.5z"/>
<g class="st0">
	<path class="st1" d="M40.2,155.6v18.3h24.6v-9.4c0-0.8,0.1-1.3,0.4-1.6c0.3-0.3,0.7-0.5,1.2-0.5c0.5,0,0.9,0.2,1.2,0.5
		c0.3,0.3,0.4,0.9,0.4,1.6v12.6H32.7c-0.8,0-1.3-0.2-1.6-0.5c-0.3-0.3-0.5-0.7-0.5-1.1c0-0.5,0.2-0.9,0.5-1.2
		c0.3-0.3,0.9-0.4,1.6-0.4H37v-38.2h-4.3c-0.8,0-1.3-0.1-1.6-0.4c-0.3-0.3-0.5-0.7-0.5-1.2s0.2-0.9,0.5-1.2c0.3-0.3,0.9-0.4,1.6-0.4
		h33.6v11c0,0.8-0.1,1.3-0.4,1.6c-0.3,0.3-0.7,0.5-1.2,0.5c-0.5,0-0.9-0.2-1.2-0.5c-0.3-0.3-0.4-0.9-0.4-1.6v-7.8H40.2v16.6h11.5
		v-3.6c0-0.8,0.2-1.3,0.5-1.6s0.7-0.5,1.2-0.5c0.5,0,0.8,0.2,1.1,0.5s0.5,0.9,0.5,1.6v10.4c0,0.8-0.2,1.3-0.5,1.6s-0.7,0.5-1.1,0.5
		c-0.5,0-0.9-0.2-1.2-0.5s-0.5-0.9-0.5-1.6v-3.6H40.2z"/>
	<path class="st1" d="M87,157.2v16.7h5.9c0.8,0,1.3,0.1,1.7,0.4c0.3,0.3,0.5,0.7,0.5,1.2c0,0.5-0.2,0.8-0.5,1.1
		c-0.3,0.3-0.9,0.5-1.7,0.5H79.5c-0.8,0-1.3-0.2-1.6-0.5c-0.3-0.3-0.5-0.7-0.5-1.1c0-0.5,0.2-0.9,0.5-1.2c0.3-0.3,0.9-0.4,1.6-0.4
		h4.3v-38.2h-4.3c-0.8,0-1.3-0.1-1.6-0.4c-0.3-0.3-0.5-0.7-0.5-1.2s0.2-0.9,0.5-1.2c0.3-0.3,0.9-0.4,1.6-0.4h19.3
		c4,0,7.3,1.3,10.1,3.8c2.7,2.5,4.1,5.4,4.1,8.6c0,2.3-0.8,4.4-2.5,6.5c-1.7,2-4.5,3.7-8.5,5c2.3,1.6,4.2,3.4,5.9,5.3
		c1.6,2,4.2,6,7.8,12.2h2.4c0.8,0,1.3,0.1,1.6,0.4c0.3,0.3,0.5,0.7,0.5,1.2c0,0.5-0.2,0.8-0.5,1.1c-0.3,0.3-0.9,0.5-1.6,0.5h-4.3
		c-4-7.1-7-11.8-9.2-14.2s-4.7-4.3-7.5-5.6H87z M87,154h8.7c2.8,0,5.3-0.5,7.6-1.5c2.3-1,3.9-2.2,5-3.6s1.5-2.8,1.5-4.2
		c0-2.1-1.1-4.2-3.2-6.1c-2.1-1.9-4.8-2.9-7.8-2.9H87V154z"/>
	<path class="st1" d="M133.8,157.2v16.7h5.9c0.8,0,1.3,0.1,1.7,0.4c0.3,0.3,0.5,0.7,0.5,1.2c0,0.5-0.2,0.8-0.5,1.1
		c-0.3,0.3-0.9,0.5-1.7,0.5h-13.4c-0.8,0-1.3-0.2-1.6-0.5c-0.3-0.3-0.5-0.7-0.5-1.1c0-0.5,0.2-0.9,0.5-1.2c0.3-0.3,0.9-0.4,1.6-0.4
		h4.3v-38.2h-4.3c-0.8,0-1.3-0.1-1.6-0.4c-0.3-0.3-0.5-0.7-0.5-1.2s0.2-0.9,0.5-1.2c0.3-0.3,0.9-0.4,1.6-0.4h19.3
		c4,0,7.3,1.3,10.1,3.8c2.7,2.5,4.1,5.4,4.1,8.6c0,2.3-0.8,4.4-2.5,6.5c-1.7,2-4.5,3.7-8.5,5c2.3,1.6,4.2,3.4,5.9,5.3
		c1.6,2,4.2,6,7.8,12.2h2.4c0.8,0,1.3,0.1,1.6,0.4c0.3,0.3,0.5,0.7,0.5,1.2c0,0.5-0.2,0.8-0.5,1.1c-0.3,0.3-0.9,0.5-1.6,0.5h-4.3
		c-4-7.1-7-11.8-9.2-14.2s-4.7-4.3-7.5-5.6H133.8z M133.8,154h8.7c2.8,0,5.3-0.5,7.6-1.5c2.3-1,3.9-2.2,5-3.6s1.5-2.8,1.5-4.2
		c0-2.1-1.1-4.2-3.2-6.1c-2.1-1.9-4.8-2.9-7.8-2.9h-11.8V154z"/>
	<path class="st1" d="M210.6,154.9c0,4.3-0.9,8.2-2.6,11.9c-1.7,3.6-4.1,6.5-7.1,8.5s-6.3,3-9.8,3c-5.2,0-9.7-2.2-13.6-6.6
		c-3.9-4.4-5.9-10-5.9-16.9c0-6.9,2-12.5,5.9-16.9s8.5-6.6,13.6-6.6c3.5,0,6.7,1,9.8,3c3,2,5.4,4.9,7.1,8.5S210.6,150.6,210.6,154.9
		z M207.3,154.9c0-5.2-1.5-9.9-4.5-14c-3-4.1-6.9-6.2-11.7-6.2c-4.5,0-8.3,2-11.5,5.9s-4.8,8.7-4.8,14.3c0,5.9,1.7,10.8,5,14.6
		c3.3,3.8,7.1,5.7,11.3,5.7c4.8,0,8.7-2.1,11.7-6.2C205.8,164.8,207.3,160.2,207.3,154.9z"/>
	<path class="st1" d="M227.4,157.2v16.7h5.9c0.8,0,1.3,0.1,1.7,0.4c0.3,0.3,0.5,0.7,0.5,1.2c0,0.5-0.2,0.8-0.5,1.1
		c-0.3,0.3-0.9,0.5-1.7,0.5h-13.4c-0.8,0-1.3-0.2-1.6-0.5c-0.3-0.3-0.5-0.7-0.5-1.1c0-0.5,0.2-0.9,0.5-1.2c0.3-0.3,0.9-0.4,1.6-0.4
		h4.3v-38.2h-4.3c-0.8,0-1.3-0.1-1.6-0.4c-0.3-0.3-0.5-0.7-0.5-1.2s0.2-0.9,0.5-1.2c0.3-0.3,0.9-0.4,1.6-0.4h19.3
		c4,0,7.3,1.3,10.1,3.8c2.7,2.5,4.1,5.4,4.1,8.6c0,2.3-0.8,4.4-2.5,6.5c-1.7,2-4.5,3.7-8.5,5c2.3,1.6,4.2,3.4,5.9,5.3
		c1.6,2,4.2,6,7.8,12.2h2.4c0.8,0,1.3,0.1,1.6,0.4c0.3,0.3,0.5,0.7,0.5,1.2c0,0.5-0.2,0.8-0.5,1.1c-0.3,0.3-0.9,0.5-1.6,0.5h-4.3
		c-4-7.1-7-11.8-9.2-14.2s-4.7-4.3-7.5-5.6H227.4z M227.4,154h8.7c2.8,0,5.3-0.5,7.6-1.5s3.9-2.2,5-3.6s1.5-2.8,1.5-4.2
		c0-2.1-1.1-4.2-3.2-6.1s-4.8-2.9-7.8-2.9h-11.8V154z"/>
	<path class="st1" d="M283.9,170.3h1.5c1.1,0,2,0.4,2.8,1.2s1.2,1.7,1.2,2.8c0,1.1-0.4,2.1-1.2,2.8c-0.8,0.8-1.7,1.1-2.8,1.1h-1.5
		c-1.1,0-2-0.4-2.8-1.2c-0.8-0.8-1.2-1.7-1.2-2.8c0-1.1,0.4-2.1,1.2-2.9C281.9,170.7,282.8,170.3,283.9,170.3z M287.7,132.5
		l-1.4,25.8c-0.1,0.8-0.2,1.4-0.5,1.7s-0.7,0.5-1.1,0.5c-0.5,0-0.8-0.2-1.1-0.5s-0.5-0.9-0.5-1.7l-1.4-25.8
		c-0.1-0.6-0.1-1.1-0.1-1.3c0-0.9,0.3-1.6,0.9-2.2s1.3-0.9,2.2-0.9c0.9,0,1.6,0.3,2.2,0.9c0.6,0.6,0.9,1.3,0.9,2.2
		C287.7,131.5,287.7,131.9,287.7,132.5z"/>
</g>
<g id="imagebot_24" class="st0">
	<path class="st2" d="M40.2,155.6v18.3h24.6v-9.4c0-0.8,0.1-1.3,0.4-1.6c0.3-0.3,0.7-0.5,1.2-0.5c0.5,0,0.9,0.2,1.2,0.5
		c0.3,0.3,0.4,0.9,0.4,1.6v12.6H32.7c-0.8,0-1.3-0.2-1.6-0.5c-0.3-0.3-0.5-0.7-0.5-1.1c0-0.5,0.2-0.9,0.5-1.2
		c0.3-0.3,0.9-0.4,1.6-0.4H37v-38.2h-4.3c-0.8,0-1.3-0.1-1.6-0.4c-0.3-0.3-0.5-0.7-0.5-1.2s0.2-0.9,0.5-1.2c0.3-0.3,0.9-0.4,1.6-0.4
		h33.6v11c0,0.8-0.1,1.3-0.4,1.6c-0.3,0.3-0.7,0.5-1.2,0.5c-0.5,0-0.9-0.2-1.2-0.5c-0.3-0.3-0.4-0.9-0.4-1.6v-7.8H40.2v16.6h11.5
		v-3.6c0-0.8,0.2-1.3,0.5-1.6s0.7-0.5,1.2-0.5c0.5,0,0.8,0.2,1.1,0.5s0.5,0.9,0.5,1.6v10.4c0,0.8-0.2,1.3-0.5,1.6s-0.7,0.5-1.1,0.5
		c-0.5,0-0.9-0.2-1.2-0.5s-0.5-0.9-0.5-1.6v-3.6H40.2z"/>
	<path class="st2" d="M87,157.2v16.7h5.9c0.8,0,1.3,0.1,1.7,0.4c0.3,0.3,0.5,0.7,0.5,1.2c0,0.5-0.2,0.8-0.5,1.1
		c-0.3,0.3-0.9,0.5-1.7,0.5H79.5c-0.8,0-1.3-0.2-1.6-0.5c-0.3-0.3-0.5-0.7-0.5-1.1c0-0.5,0.2-0.9,0.5-1.2c0.3-0.3,0.9-0.4,1.6-0.4
		h4.3v-38.2h-4.3c-0.8,0-1.3-0.1-1.6-0.4c-0.3-0.3-0.5-0.7-0.5-1.2s0.2-0.9,0.5-1.2c0.3-0.3,0.9-0.4,1.6-0.4h19.3
		c4,0,7.3,1.3,10.1,3.8c2.7,2.5,4.1,5.4,4.1,8.6c0,2.3-0.8,4.4-2.5,6.5c-1.7,2-4.5,3.7-8.5,5c2.3,1.6,4.2,3.4,5.9,5.3
		c1.6,2,4.2,6,7.8,12.2h2.4c0.8,0,1.3,0.1,1.6,0.4c0.3,0.3,0.5,0.7,0.5,1.2c0,0.5-0.2,0.8-0.5,1.1c-0.3,0.3-0.9,0.5-1.6,0.5h-4.3
		c-4-7.1-7-11.8-9.2-14.2s-4.7-4.3-7.5-5.6H87z M87,154h8.7c2.8,0,5.3-0.5,7.6-1.5c2.3-1,3.9-2.2,5-3.6s1.5-2.8,1.5-4.2
		c0-2.1-1.1-4.2-3.2-6.1c-2.1-1.9-4.8-2.9-7.8-2.9H87V154z"/>
	<path class="st2" d="M133.8,157.2v16.7h5.9c0.8,0,1.3,0.1,1.7,0.4c0.3,0.3,0.5,0.7,0.5,1.2c0,0.5-0.2,0.8-0.5,1.1
		c-0.3,0.3-0.9,0.5-1.7,0.5h-13.4c-0.8,0-1.3-0.2-1.6-0.5c-0.3-0.3-0.5-0.7-0.5-1.1c0-0.5,0.2-0.9,0.5-1.2c0.3-0.3,0.9-0.4,1.6-0.4
		h4.3v-38.2h-4.3c-0.8,0-1.3-0.1-1.6-0.4c-0.3-0.3-0.5-0.7-0.5-1.2s0.2-0.9,0.5-1.2c0.3-0.3,0.9-0.4,1.6-0.4h19.3
		c4,0,7.3,1.3,10.1,3.8c2.7,2.5,4.1,5.4,4.1,8.6c0,2.3-0.8,4.4-2.5,6.5c-1.7,2-4.5,3.7-8.5,5c2.3,1.6,4.2,3.4,5.9,5.3
		c1.6,2,4.2,6,7.8,12.2h2.4c0.8,0,1.3,0.1,1.6,0.4c0.3,0.3,0.5,0.7,0.5,1.2c0,0.5-0.2,0.8-0.5,1.1c-0.3,0.3-0.9,0.5-1.6,0.5h-4.3
		c-4-7.1-7-11.8-9.2-14.2s-4.7-4.3-7.5-5.6H133.8z M133.8,154h8.7c2.8,0,5.3-0.5,7.6-1.5c2.3-1,3.9-2.2,5-3.6s1.5-2.8,1.5-4.2
		c0-2.1-1.1-4.2-3.2-6.1c-2.1-1.9-4.8-2.9-7.8-2.9h-11.8V154z"/>
	<path class="st2" d="M210.6,154.9c0,4.3-0.9,8.2-2.6,11.9c-1.7,3.6-4.1,6.5-7.1,8.5s-6.3,3-9.8,3c-5.2,0-9.7-2.2-13.6-6.6
		c-3.9-4.4-5.9-10-5.9-16.9c0-6.9,2-12.5,5.9-16.9s8.5-6.6,13.6-6.6c3.5,0,6.7,1,9.8,3c3,2,5.4,4.9,7.1,8.5S210.6,150.6,210.6,154.9
		z M207.3,154.9c0-5.2-1.5-9.9-4.5-14c-3-4.1-6.9-6.2-11.7-6.2c-4.5,0-8.3,2-11.5,5.9s-4.8,8.7-4.8,14.3c0,5.9,1.7,10.8,5,14.6
		c3.3,3.8,7.1,5.7,11.3,5.7c4.8,0,8.7-2.1,11.7-6.2C205.8,164.8,207.3,160.2,207.3,154.9z"/>
	<path class="st2" d="M227.4,157.2v16.7h5.9c0.8,0,1.3,0.1,1.7,0.4c0.3,0.3,0.5,0.7,0.5,1.2c0,0.5-0.2,0.8-0.5,1.1
		c-0.3,0.3-0.9,0.5-1.7,0.5h-13.4c-0.8,0-1.3-0.2-1.6-0.5c-0.3-0.3-0.5-0.7-0.5-1.1c0-0.5,0.2-0.9,0.5-1.2c0.3-0.3,0.9-0.4,1.6-0.4
		h4.3v-38.2h-4.3c-0.8,0-1.3-0.1-1.6-0.4c-0.3-0.3-0.5-0.7-0.5-1.2s0.2-0.9,0.5-1.2c0.3-0.3,0.9-0.4,1.6-0.4h19.3
		c4,0,7.3,1.3,10.1,3.8c2.7,2.5,4.1,5.4,4.1,8.6c0,2.3-0.8,4.4-2.5,6.5c-1.7,2-4.5,3.7-8.5,5c2.3,1.6,4.2,3.4,5.9,5.3
		c1.6,2,4.2,6,7.8,12.2h2.4c0.8,0,1.3,0.1,1.6,0.4c0.3,0.3,0.5,0.7,0.5,1.2c0,0.5-0.2,0.8-0.5,1.1c-0.3,0.3-0.9,0.5-1.6,0.5h-4.3
		c-4-7.1-7-11.8-9.2-14.2s-4.7-4.3-7.5-5.6H227.4z M227.4,154h8.7c2.8,0,5.3-0.5,7.6-1.5s3.9-2.2,5-3.6s1.5-2.8,1.5-4.2
		c0-2.1-1.1-4.2-3.2-6.1s-4.8-2.9-7.8-2.9h-11.8V154z"/>
	<path class="st2" d="M283.9,170.3h1.5c1.1,0,2,0.4,2.8,1.2s1.2,1.7,1.2,2.8c0,1.1-0.4,2.1-1.2,2.8c-0.8,0.8-1.7,1.1-2.8,1.1h-1.5
		c-1.1,0-2-0.4-2.8-1.2c-0.8-0.8-1.2-1.7-1.2-2.8c0-1.1,0.4-2.1,1.2-2.9C281.9,170.7,282.8,170.3,283.9,170.3z M287.7,132.5
		l-1.4,25.8c-0.1,0.8-0.2,1.4-0.5,1.7s-0.7,0.5-1.1,0.5c-0.5,0-0.8-0.2-1.1-0.5s-0.5-0.9-0.5-1.7l-1.4-25.8
		c-0.1-0.6-0.1-1.1-0.1-1.3c0-0.9,0.3-1.6,0.9-2.2s1.3-0.9,2.2-0.9c0.9,0,1.6,0.3,2.2,0.9c0.6,0.6,0.9,1.3,0.9,2.2
		C287.7,131.5,287.7,131.9,287.7,132.5z"/>
</g>
<g>
	<path class="st1" d="M160.1,52.2h-0.4c-16.9,0.4-30.4,14.5-30,31.4c0.6,17,14.8,30.3,31.8,29.7c16.7-0.4,30.1-14.4,29.8-31.1
		C191,65.3,177,51.9,160.1,52.2z M161.5,62.8c2.4-2.2,6-2.2,8.4,0c1.1,1.1,2.2,2.2,3.4,3.4c-0.1,0.1-0.1,0.3-0.3,0.4
		c-2.8,2.8-5.5,5.6-8.3,8.3l-0.1,0.1c-2.5,2.2-6.2,2-8.5-0.4l2.5-2.5c1.5,1.3,2.4,1.3,3.9-0.3c1.5-1.7,3.2-3.2,4.9-4.9
		c0.3-0.1,0.4-0.4,0.6-0.6c-1.5-2-2.8-2.1-4.7-0.6c-0.3-0.4-0.7-0.8-1.1-1.3c-0.4-0.4-0.8-0.8-1.3-1.3L161.5,62.8z M176.2,79.7
		l-2.2,2.2l-7.5-7.5l2.2-2.2L176.2,79.7z M152,76.9l-2.2-2.3l7.7-7.6l2.2,2.2L152,76.9z M152,62.2c2.1-1.7,5.2-1.5,7.2,0.3
		c2,1.8,3.8,3.8,5.8,5.8l-2.7,2.5l-3.4-3.4c-0.6-0.6-1.1-1.1-1.7-1.7c-0.1-0.1-0.3-0.3-0.4-0.4c-1-0.8-2.5-0.6-3.4,0.4
		c-0.1,0.1-0.4,0.3-0.8,0.7c0.6,0.3,0.8,0.6,1.3,0.8c0.4,0.3,0.7,0.6,1,0.9l-2.5,2.5l-4.5-4.5C149.2,64.9,150.4,63.3,152,62.2z
		 M140.2,73.9c1.3-1.4,2.7-2.7,4.1-3.9c0.3,0.3,0.6,0.7,1,1.1c2.5,2.7,5.1,5.1,7.6,7.8c0,0.1,0.1,0.1,0.1,0.3c2,2.4,1.5,6-0.8,8
		l-2.2-2.5c0.8-0.6,1.1-1.8,0.7-2.8c0-0.1,0-0.3-0.1-0.4c-2.1-2.1-4.2-4.1-6.3-6.2c-1.8,1.3-2.1,2.5-0.7,4.4l-2.5,2.4
		C138.5,79.9,138.2,76.3,140.2,73.9z M154.5,91.1l-2.2,2.2l-7.6-7.5l2.4-2.2L154.5,91.1z M139.7,90.9c-1.7-2.2-1.3-5.3,0.6-7.3
		c1.8-1.7,3.7-3.5,5.3-5.2l2.7,2.5c-0.3,0.4-0.8,0.8-1.3,1.3c-1.3,1.1-2.5,2.4-3.8,3.7c-0.3,0.1-0.4,0.3-0.6,0.6
		c-0.7,1.1-0.6,2.7,0.6,3.4c0.3,0.1,0.4,0.4,0.7,0.7l1.7-1.8l2.5,2.4l-4.4,4.4C142.3,94,141,92.5,139.7,90.9z M156.3,104.3
		c-1.7,0.4-3.5-0.1-4.8-1.3c-1.3-1.3-2.5-2.7-3.8-3.9c1.3-1.3,2.4-2.4,3.7-3.7c1.7-1.7,3.4-3.4,5.2-5.1c2.5-2.1,6.2-1.8,8.3,0.6
		l-2.5,2.4c-0.4-0.4-0.8-0.7-1.4-0.8c-0.7-0.1-1.5,0-2.1,0.6c-2.1,2.1-4.1,4.1-6,6.1c1.3,1.8,2.5,2.1,4.5,0.7
		c0.1,0.1,0.1,0.1,0.3,0.3c0.7,0.8,1.4,1.5,2.2,2.2C158.9,103.5,157.7,104.2,156.3,104.3z M169,88.7l2.2,2.2l-7.5,7.6l-2.2-2.2
		L169,88.7z M168.9,103.6c-2,1.4-4.6,1.3-6.6-0.3c-2.1-2-3.9-4.1-5.9-6.2l2.3-2.2c0.1,0.1,0.3,0.3,0.4,0.4c1.5,1.4,3,2.8,4.4,4.4
		c1.7,1.8,3.2,1.7,4.9-0.4l-2-1.5l2.5-2.5l4.5,4.4C172,100.9,170.4,102.3,168.9,103.6z M182.1,89.5c-0.3,0.7-0.6,1.4-1.1,2
		c-1.1,1.4-2.5,2.5-3.8,3.8c-0.1,0-0.3-0.1-0.4-0.3c-2.5-2.7-5.2-5.2-7.9-7.9c-0.1-0.1-0.1-0.1-0.3-0.3c-2.2-2.2-2.2-6,0-8.3
		c0.1-0.1,0.3-0.3,0.3-0.3l2.4,2.4c-0.3,0.7-0.6,1.4-0.7,2.1c-0.1,0.6,0.1,1,0.4,1.4c2.1,2.1,4.1,4.2,6.2,6.2c2-1.5,2.1-2.5,0.8-4.7
		l2.4-2.4C182.2,84.9,182.9,87.3,182.1,89.5z M181.1,81.2c-1.8,2.1-3.9,3.9-6,5.9c-0.7-0.7-1.4-1.4-2.1-2.2c-0.1,0-0.1-0.1-0.3-0.3
		l3.5-3.5c0.6-0.6,1.1-1.1,1.7-1.7l0.4-0.4c0.8-1,0.6-2.4-0.4-3.2c-0.1-0.1-0.3-0.4-0.6-0.7l-1.8,2l-2.5-2.5l4.4-4.4
		c1.3,1.1,2.5,2.2,3.8,3.7C182.9,75.9,182.9,79.1,181.1,81.2z"/>
</g>
</svg>
