<svg id="Layer_1" data-name="Layer 1" xmlns="http://www.w3.org/2000/svg" xmlns:xlink="http://www.w3.org/1999/xlink" viewBox="0 0 59.81 64.86"><defs><style>.cls-1{fill:#8487ff;}.cls-2{fill:#b9baff;}.cls-3{fill:#eef;}.cls-4{fill:#4d89ff;}.cls-5{fill:#7af6e4;}.cls-6{fill:url(#linear-gradient);}.cls-7{fill:none;stroke:#7af6e4;stroke-linecap:round;stroke-linejoin:round;stroke-width:1.09px;}</style><linearGradient id="linear-gradient" x1="-4.15" y1="77.33" x2="-4.15" y2="76.33" gradientTransform="matrix(10.54, 0, 0, -21.75, 78.79, 1682.36)" gradientUnits="userSpaceOnUse"><stop offset="0" stop-color="#7af6e4" stop-opacity="0"/><stop offset="0.09" stop-color="#7af6e4" stop-opacity="0.04"/><stop offset="0.24" stop-color="#7af6e4" stop-opacity="0.16"/><stop offset="0.44" stop-color="#7af6e4" stop-opacity="0.34"/><stop offset="0.68" stop-color="#7af6e4" stop-opacity="0.61"/><stop offset="0.95" stop-color="#7af6e4" stop-opacity="0.93"/><stop offset="1" stop-color="#7af6e4"/></linearGradient></defs><path class="cls-1" d="M36.9,34.58l-.09,30.93L9.89,50,10,19Z" transform="translate(-3.18 -0.65)"/><path class="cls-2" d="M36.9,34.58,63,19.42,62.9,50.35,36.81,65.51Z" transform="translate(-3.18 -0.65)"/><path class="cls-3" d="M10,19,36.07,3.87,63,19.42,36.9,34.58Z" transform="translate(-3.18 -0.65)"/><path class="cls-4" d="M23.41,35.4a13.19,13.19,0,0,1,6,10.34c0,3.8-2.7,5.33-6,3.42a13.2,13.2,0,0,1-6-10.34C17.41,35,20.11,33.49,23.41,35.4Z" transform="translate(-3.18 -0.65)"/><path class="cls-5" d="M23.41,38.56a7.13,7.13,0,0,1,3.22,5.59c0,2.05-1.46,2.88-3.25,1.85a7.13,7.13,0,0,1-3.22-5.59C20.16,38.35,21.62,37.52,23.41,38.56Z" transform="translate(-3.18 -0.65)"/><path class="cls-4" d="M41,15.89c3.3,1.91,3.32,5,0,6.92a13.14,13.14,0,0,1-11.93,0c-3.31-1.91-3.33-5,0-6.92A13.16,13.16,0,0,1,41,15.89Z" transform="translate(-3.18 -0.65)"/><path class="cls-6" d="M29.81.66V19.42h0a2.7,2.7,0,0,0,1.54,2.09,8.24,8.24,0,0,0,7.46,0,2.67,2.67,0,0,0,1.52-2.09h0V.65Z" transform="translate(-3.18 -0.65)"/><path class="cls-7" d="M18.63,37.44a13.15,13.15,0,0,1,6,10.34c0,3.8-2.7,5.33-6,3.42a13.14,13.14,0,0,1-6-10.34C12.63,37.06,15.32,35.53,18.63,37.44Z" transform="translate(-3.18 -0.65)"/><path class="cls-7" d="M14.18,39.56a13.17,13.17,0,0,1,6,10.35c0,3.8-2.7,5.32-6,3.41A13.19,13.19,0,0,1,8.17,43C8.18,39.18,10.87,37.65,14.18,39.56Z" transform="translate(-3.18 -0.65)"/><path class="cls-7" d="M9.73,41.68A13.17,13.17,0,0,1,15.7,52c0,3.8-2.7,5.32-6,3.41a13.19,13.19,0,0,1-6-10.33C3.73,41.31,6.42,39.77,9.73,41.68Z" transform="translate(-3.18 -0.65)"/></svg>