<svg id="Capa_2" data-name="Capa 2" xmlns="http://www.w3.org/2000/svg" viewBox="0 0 167.41 147.78"><defs><style>.cls-1{fill:#0089ff;}</style></defs><path class="cls-1" d="M80,49.17H32.52a9.22,9.22,0,0,1,0-18.43H80a9.22,9.22,0,0,1,0,18.43ZM32.52,36a3.93,3.93,0,1,0,0,7.86H80A3.93,3.93,0,0,0,80,36Z"/><path class="cls-1" d="M56.27,143.89A53.34,53.34,0,0,1,30,44.11a2.6,2.6,0,0,1,1.77-.3,4.17,4.17,0,0,0,.71.07H80a4.27,4.27,0,0,0,.71-.07,2.61,2.61,0,0,1,1.77.3,53.76,53.76,0,0,1,11.82,9.08A2.64,2.64,0,1,1,90.64,57l-.08-.08a48.49,48.49,0,0,0-9.9-7.74c-.22,0-.43,0-.64,0H32.52c-.21,0-.42,0-.63,0A48.06,48.06,0,0,0,80.78,131.9l.73-.44A2.64,2.64,0,0,1,84.29,136,53.22,53.22,0,0,1,56.27,143.89Z"/><path class="cls-1" d="M78,36H34.59A2.65,2.65,0,0,1,33,35.51c-12.58-9.28-9.81-30-9.69-30.85A2.64,2.64,0,0,1,26,2.39a18.59,18.59,0,0,1,10,2.92,14.53,14.53,0,0,0,11.42,2,33.94,33.94,0,0,1,17.89,0,14.53,14.53,0,0,0,11.42-2,18.59,18.59,0,0,1,10-2.92,2.64,2.64,0,0,1,2.62,2.27c.12.87,2.89,21.57-9.69,30.85A2.65,2.65,0,0,1,78,36ZM35.49,30.74H77.05c7.18-6,7.42-17.71,7.14-22.85a13.82,13.82,0,0,0-4.75,1.9,19.75,19.75,0,0,1-15.55,2.66,28.77,28.77,0,0,0-15.24,0A19.76,19.76,0,0,1,33.1,9.79a14,14,0,0,0-4.75-1.9c-.26,5.15,0,16.91,7.15,22.85Z"/><path class="cls-1" d="M56.28,121.83A31.37,31.37,0,1,1,87.64,90.46,31.37,31.37,0,0,1,56.28,121.83Zm0-57.45A26.09,26.09,0,1,0,82.36,90.46h0A26.12,26.12,0,0,0,56.28,64.38Z"/><path class="cls-1" d="M145,143.89H96.36a2.64,2.64,0,0,1-2.64-2.64V123.7a2.64,2.64,0,0,1,2.64-2.64H145a2.65,2.65,0,0,1,2.64,2.64h0v17.54a2.65,2.65,0,0,1-2.64,2.65Zm-46-5.28h43.35V126.34H99Z"/><path class="cls-1" d="M152,126.34H103.4a2.64,2.64,0,0,1-2.64-2.64h0V106.16a2.64,2.64,0,0,1,2.64-2.64H152a2.64,2.64,0,0,1,2.64,2.64h0V123.7A2.64,2.64,0,0,1,152,126.34Zm-46-5.28H149.4V108.8H106Z"/><path class="cls-1" d="M145,108.8H96.36a2.64,2.64,0,0,1-2.64-2.64h0V88.61A2.64,2.64,0,0,1,96.36,86H145a2.64,2.64,0,0,1,2.64,2.64h0v17.55A2.64,2.64,0,0,1,145,108.8Zm-46-5.28h43.35V91.25H99Z"/><path class="cls-1" d="M151.47,73.23H102.84a2.64,2.64,0,0,1-2.64-2.64h0V53.05a2.65,2.65,0,0,1,2.64-2.65h48.63a2.65,2.65,0,0,1,2.64,2.65V70.59A2.64,2.64,0,0,1,151.47,73.23Zm-46-5.29h43.35V55.68H105.48Z"/><path class="cls-1" d="M127.16,21.85a2.64,2.64,0,0,1-2.64-2.64h0V15.45a2.64,2.64,0,0,1,5.28,0h0V19.2A2.65,2.65,0,0,1,127.16,21.85Z"/><path class="cls-1" d="M127.16,42.29a2.64,2.64,0,0,1-2.64-2.64h0V27.55a2.64,2.64,0,1,1,5.28,0h0v12.1a2.64,2.64,0,0,1-2.63,2.64Z"/><path class="cls-1" d="M142.46,45.1a2.64,2.64,0,0,1-2.64-2.64V21.08a2.64,2.64,0,1,1,5.28,0V42.46a2.63,2.63,0,0,1-2.63,2.64Z"/><path class="cls-1" d="M111.85,45.1a2.64,2.64,0,0,1-2.64-2.63h0V21.08a2.65,2.65,0,0,1,5.29,0V42.46a2.64,2.64,0,0,1-2.64,2.64Z"/><path class="cls-1" d="M163.3,143.89H15.43a2.65,2.65,0,0,1,0-5.29H163.3a2.65,2.65,0,0,1,0,5.29Z"/><path class="cls-1" d="M65.2,69.2H47.35a5.27,5.27,0,0,0-5.25,5.25V87.71A5.26,5.26,0,0,0,47.35,93h2.89l-1,1a2.5,2.5,0,0,0,3.54,3.53L57.31,93H65a.41.41,0,0,1,.41.41v12.95a.41.41,0,0,1-.41.41H47.51a.42.42,0,0,1-.41-.41v-4.19a2.5,2.5,0,1,0-5-.26,1.13,1.13,0,0,0,0,.26h0v4.35a5.25,5.25,0,0,0,5.24,5.24H65.2a5.26,5.26,0,0,0,5.25-5.24V93.21A5.27,5.27,0,0,0,65.2,88H62.3l.87-.87.27-.27a2.5,2.5,0,0,0-.14-3.32,2.48,2.48,0,0,0-1.76-.76,2.72,2.72,0,0,0-1.78.7L55.24,88H47.51a.41.41,0,0,1-.41-.41v-13a.41.41,0,0,1,.41-.41H65a.41.41,0,0,1,.42.41v4.19a2.49,2.49,0,0,0,2.48,2.5h0a2.5,2.5,0,0,0,2.5-2.5V74.44A5.26,5.26,0,0,0,65.2,69.2Z"/></svg>